<mxfile host="app.diagrams.net" modified="2024-04-24T01:58:04.922Z" agent="Mozilla/5.0 (Windows NT 10.0; Win64; x64) AppleWebKit/537.36 (KHTML, like Gecko) Chrome/124.0.0.0 Safari/537.36" version="24.2.8" etag="WOsVlijKrrNi2O6g30EL" type="github">
  <diagram name="PÃ¡gina-1" id="32uJHL9yQx7tuh1EHxgd">
    <mxGraphModel>
      <root>
        <mxCell id="0" />
        <mxCell id="1" parent="0" />
      </root>
    </mxGraphModel>
  </diagram>
</mxfile>
